# xmcd
#
# Track frame offsets:
# 150
# 14752
# 27725
# 48317
# 61650
# 80310
# 92529
# 108042
# 123812
# 144732
#
# Disc length: 2130 seconds
#
#
# Revision: 0
# Processed by: cddbd v1.4PL0 Copyright (c) Steve Scherf et al.
# Submitted via: FreeRIP 2.51 
#
DISCID=7908500a
DTITLE=Bay Country - Band Overboard
DYEAR=1900
DGENRE=Country
TTITLE0=Bubba, Get Your Gun
TTITLE1=Sorry Don't Work Anymore
TTITLE2=The Memory of You
TTITLE3=The Checkout Lady at Walmart
TTITLE4=If She Were Mine
TTITLE5=Hummingbird
TTITLE6=Ill Never Find Another Love Like You (Acoustic)
TTITLE7=I Don't Care Waht It Takes (To Get You)
TTITLE8=Every Now and Then
TTITLE9=Louisiana Man
EXTD=
EXTT0=
EXTT1=
EXTT2=
EXTT3=
EXTT4=
EXTT5=
EXTT6=
EXTT7=
EXTT8=
EXTT9=
PLAYORDER=
